<?xml version="1.0" encoding="UTF-8"?>
<svg id="Layer_1" xmlns="http://www.w3.org/2000/svg" viewBox="0 0 520.56 240">
  <defs>
    <style>
      .cls-1 {
        fill: #03519b;
        stroke: #03519b;
      }

      .cls-1, .cls-2 {
        stroke-miterlimit: 10;
      }

      .cls-3 {
        fill: #fff;
      }

      .cls-2 {
        fill: #005496;
        stroke: #005496;
      }

      .cls-4 {
        fill: #373636;
      }
    </style>
  </defs>
  <rect class="cls-3" x=".38" y="144.45" width="518.93" height="68.1"/>
  <g>
    <path class="cls-4" d="M19.39,195.94h14.66v4.71H13.37v-41.29h6.02v36.58Z"/>
    <path class="cls-4" d="M56.39,159.36h25.93v4.71h-19.91v11.56h19.33v4.71h-19.33v15.61h19.91v4.71h-25.93v-41.29Z"/>
    <path class="cls-4" d="M114.96,190.31l-5.51,10.35h-6.47l23.05-43.05,23.05,43.05h-6.47l-5.51-10.35h-22.15ZM126.03,168.89l-8.58,16.7h17.16l-8.58-16.7Z"/>
    <path class="cls-4" d="M170.96,159.36h9.99c14.79,0,27.08,6.68,27.08,20.43s-12.04,20.87-27.27,20.87h-9.79v-41.29ZM176.98,195.94h2.11c12.29,0,22.92-3.94,22.92-15.94s-10.63-15.94-22.92-15.94h-2.11v31.87Z"/>
    <path class="cls-4" d="M232.41,159.36h25.93v4.71h-19.91v11.56h19.33v4.71h-19.33v15.61h19.91v4.71h-25.93v-41.29Z"/>
    <path class="cls-4" d="M314.16,200.66h-7.3l-14.22-17.47h-2.49v17.47h-6.02v-41.29h7.3c4.29,0,8.9.06,12.74,1.92,4.03,2.03,6.34,5.91,6.34,9.86,0,5.92-4.61,10.84-11.59,11.56l15.24,17.96ZM290.15,178.91h1.92c6.14,0,12.81-.99,12.81-7.56s-7.17-7.39-13.13-7.39h-1.6v14.95Z"/>
    <path class="cls-4" d="M358.71,167.19c-1.8-2.57-4.1-3.89-7.75-3.89-3.84,0-8.06,2.24-8.06,5.86,0,3.23,3.71,4.93,6.72,5.92l3.46,1.15c6.85,2.3,11.97,5.53,11.97,12.43,0,7.5-6.79,12.87-15.43,12.87-7.81,0-13.89-4.93-14.91-11.56l6.08-1.09c-.06,4.55,4.16,7.83,9.35,7.83s8.9-3.73,8.9-8.05-4.16-6.35-8.32-7.83l-3.33-1.2c-5.51-2.02-10.5-4.71-10.5-10.46,0-6.68,6.92-10.68,14.21-10.68,5.38,0,9.79,2.24,12.42,6.24l-4.8,2.46Z"/>
    <path class="cls-4" d="M418.49,176.01v-16.65h6.02v41.29h-6.02v-19.83h-22.99v19.83h-6.01v-41.29h6.01v16.65h22.99Z"/>
    <path class="cls-4" d="M457.4,200.66h-6.02v-41.29h6.02v41.29Z"/>
    <path class="cls-4" d="M490.82,200.66h-6.02v-41.29h6.91c14.85,0,19.46,4.38,19.46,11.94,0,8.71-7.75,12.05-16.91,12.05h-3.45v17.31ZM490.82,178.75h1.92c6.15,0,12.8-.98,12.8-7.56s-7.17-7.23-13.12-7.23h-1.6v14.79Z"/>
  </g>
  <rect class="cls-1" y="24.57" width="519.5" height="120.51"/>
  <rect class="cls-2" x=".06" y="212.32" width="519.5" height="3.11"/>
  <g>
    <path class="cls-3" d="M56.65,82.24l-14.28-8.58c-4.75-2.86-6.87-5.66-6.87-9.1,0-5.83,4.92-9.46,12.84-9.46,5.76,0,12.11,2.18,16.97,5.83l2.49,1.87v-15.28l-.8-.44c-5.18-2.89-11.72-4.49-18.43-4.49-20.17,0-27.33,11.96-27.33,22.2,0,8.9,4.06,15.09,13.58,20.69l14.17,8.59c5.51,3.28,8.19,6.63,8.19,10.26,0,5-4.23,10.04-13.69,10.04s-16.46-4.71-18.99-6.73l-2.53-2.02v15.91l.87.43c3.74,1.84,11.42,4.92,20.89,4.92,19.05,0,27.57-11.56,27.57-23.01,0-9.06-4.25-15.33-14.67-21.63Z"/>
    <polygon class="cls-3" points="74.26 56.38 96.28 56.38 96.28 125.72 109.8 125.72 109.8 56.38 131.58 56.38 131.58 43.76 74.26 43.76 74.26 56.38"/>
    <polygon class="cls-3" points="140.08 125.72 187.48 125.72 187.48 113.1 153.6 113.1 153.6 90.82 185.05 90.82 185.05 78.2 153.6 78.2 153.6 56.38 187.48 56.38 187.48 43.76 140.08 43.76 140.08 125.72"/>
    <polygon class="cls-3" points="294.72 43.76 277.15 105.99 256.49 43.76 242.44 43.76 245.73 53.62 225.46 106.38 207.66 43.76 192.78 43.76 217.55 125.72 231.39 125.72 252.37 71.65 270.95 125.72 284.96 125.72 309.61 43.76 294.72 43.76"/>
    <path class="cls-3" d="M333.83,43.76l-32.2,81.97h15.09l8.35-22.03h31.13l8.59,22.03h15.08l-32.2-81.97h-13.86ZM351.62,90.95h-21.83l10.92-28.22,10.92,28.22Z"/>
    <path class="cls-3" d="M425.62,88.08c9.16-3.39,14.52-10.88,14.52-20.62,0-14.4-10.77-23.7-27.45-23.7h-25.87v81.97h13.51v-32.93h7.04c10.13,0,19.7,13.02,23.28,31.67l.24,1.26h13.88l-.29-1.8c-2.67-16.48-9.74-29.77-18.85-35.84ZM400.33,56.38h12.36c8.24,0,13.56,4.72,13.56,12.01,0,8.68-7.01,11.77-13.56,11.77h-12.36v-23.79Z"/>
    <polygon class="cls-3" points="444.53 43.76 444.53 56.38 466.54 56.38 466.54 125.72 480.07 125.72 480.07 56.38 501.84 56.38 501.84 43.76 444.53 43.76"/>
  </g>
</svg>